<svg width="16" height="16" viewBox="0 0 16 16" fill="none" xmlns="http://www.w3.org/2000/svg">
<path d="M14.015 11.515C14.0107 11.5129 14.0017 11.509 13.9973 11.5072C13.8195 11.4329 12.2601 10.7255 12.2428 8.8016C12.2282 7.28523 13.3204 6.47072 13.6555 6.25715C13.6647 6.25128 13.6713 6.24707 13.675 6.24452C13.8104 6.15303 13.8461 5.96921 13.7549 5.83362C12.842 4.4766 11.4503 4.27067 10.8842 4.2459C10.8015 4.23761 10.7164 4.2334 10.631 4.2334C9.96774 4.2334 9.34772 4.48264 8.84953 4.68288C8.54577 4.80501 8.25878 4.92033 8.0941 4.92033C7.90435 4.92033 7.61505 4.80329 7.3088 4.67944C6.84403 4.49141 6.31722 4.27826 5.74312 4.27826C5.7292 4.27826 5.71521 4.27838 5.702 4.27867C4.38426 4.29959 3.14054 5.06468 2.45627 6.27504C1.17907 8.53037 1.98197 11.942 3.38575 14.0068C3.92489 14.8006 4.73958 16 5.86324 16C5.88386 16 5.90455 15.9995 5.92576 15.9987C6.40694 15.9794 6.74566 15.8325 7.07325 15.6906C7.42246 15.5392 7.75235 15.3962 8.28402 15.3962C8.78909 15.3962 9.10286 15.5344 9.43507 15.6807C9.77101 15.8286 10.1183 15.9816 10.6309 15.9816C10.6464 15.9816 10.662 15.9815 10.6783 15.9812C11.8439 15.9585 12.5577 14.8954 13.131 14.0413C13.7495 13.1215 14.0606 12.2274 14.1657 11.8857L14.1688 11.8757C14.2157 11.734 14.1498 11.5793 14.015 11.515Z" fill="#333333"/>
<path d="M7.95559 3.9851C8.01147 3.98954 8.06854 3.99173 8.12525 3.99173C8.12531 3.99173 8.12525 3.99173 8.12531 3.99173C8.91961 3.99173 9.77395 3.54836 10.3552 2.83429C10.9601 2.08745 11.2656 1.12686 11.1723 0.264531C11.1555 0.109509 11.0221 -0.00728966 10.8656 0.000354727C10.0596 0.0335397 9.09508 0.535343 8.52068 1.21972C8.03435 1.79412 7.55945 2.75459 7.68513 3.72767C7.70309 3.86664 7.81592 3.97407 7.95559 3.9851Z" fill="#333333"/>
</svg>
