<svg width="32" height="32" viewBox="0 0 32 32" fill="none" xmlns="http://www.w3.org/2000/svg">
<g clip-path="url(#clip0_0_241)">
<path d="M23.9428 11.5036C23.8838 11.45 23.796 11.4434 23.7296 11.4874C23.436 11.6822 23.0402 11.7811 22.7113 11.8313C23.1046 11.5105 23.5633 11.0062 23.5603 10.3564C23.56 10.291 23.5231 10.2313 23.4647 10.2018C23.4064 10.1723 23.3364 10.178 23.2836 10.2165C22.6874 10.6515 21.8329 10.8801 21.5201 10.953C21.2988 10.5884 20.5379 9.51929 19.2227 9.51929C19.1491 9.51929 19.074 9.52277 18.9996 9.52958C17.3651 9.6799 16.5732 10.6357 16.1966 11.411C15.9586 11.9012 15.854 12.3759 15.8082 12.6893C15.549 12.4634 15.0969 12.1196 14.424 11.7755C13.3959 11.2498 11.6302 10.6232 9.0568 10.6232C8.8066 10.6232 8.54959 10.6291 8.29287 10.6408C8.23448 10.6435 8.1813 10.6753 8.15131 10.7255C8.12132 10.7756 8.11853 10.8376 8.14395 10.8902C8.69319 12.0309 9.87469 12.7009 10.6438 13.0327C10.2218 13.1445 9.77093 13.3627 9.62971 13.7064C9.55804 13.8809 9.53963 14.1551 9.85892 14.4706C10.3277 14.9338 10.8788 15.2152 11.3643 15.3861C10.9839 15.4538 10.6801 15.57 10.5817 15.7633C10.5442 15.8369 10.5015 15.9881 10.6364 16.1735C11.2831 17.0628 12.833 17.4086 13.5204 17.465C13.4332 17.6721 13.2516 18.0085 12.9008 18.3417C12.1514 19.0535 10.9698 19.4297 9.48362 19.4297C9.48347 19.4297 9.48332 19.4297 9.48318 19.4297C9.07933 19.4297 8.64588 19.4024 8.19473 19.3484C8.12022 19.3396 8.0483 19.3793 8.01641 19.4474C7.98453 19.5153 7.99985 19.5961 8.05441 19.6477C10.0137 21.5006 12.2379 22.4802 14.4867 22.4805C14.4871 22.4805 14.4874 22.4805 14.4878 22.4805C16.9635 22.4805 19.3875 21.2632 20.9719 19.2243C22.3829 17.4085 22.9234 15.2351 22.4671 13.2363C22.7719 13.1059 23.4448 12.7201 23.9796 11.7142C24.017 11.6438 24.0018 11.5571 23.9428 11.5036Z" fill="#333333"/>
</g>
<circle cx="16" cy="16" r="15.65" stroke="#333333" stroke-width="0.7"/>
<defs>
<clipPath id="clip0_0_241">
<rect width="16" height="16" fill="white" transform="translate(8 8)"/>
</clipPath>
</defs>
</svg>
