<svg width="32" height="32" viewBox="0 0 32 32" fill="none" xmlns="http://www.w3.org/2000/svg">
<circle cx="16" cy="16" r="15.65" stroke="#333333" stroke-width="0.7"/>
<g clip-path="url(#clip0_0_236)">
<path d="M9.43066 12.1577V19.8286C9.43066 21.3347 10.6516 22.5557 12.1577 22.5557H19.8286C21.3347 22.5557 22.5557 21.3347 22.5557 19.8286V12.1577C22.5557 10.6516 21.3347 9.43066 19.8286 9.43066H12.1577C10.6516 9.43066 9.43066 10.6516 9.43066 12.1577ZM17.3834 19.712C14.1462 20.8289 11.1574 17.8401 12.2744 14.6029C12.6507 13.5118 13.5117 12.6507 14.6028 12.2744C17.8401 11.1574 20.8289 14.1462 19.712 17.3835C19.3356 18.4746 18.4746 19.3356 17.3834 19.712ZM20.5474 12.0244C20.4959 12.2941 20.2727 12.4511 20.0419 12.4511C19.9013 12.4511 19.7581 12.3931 19.6484 12.2672C19.6387 12.2561 19.6297 12.2442 19.6217 12.2317C19.5085 12.0587 19.505 11.8531 19.6012 11.6864C19.6693 11.5684 19.7792 11.4842 19.9108 11.4489C20.0423 11.4135 20.1797 11.4317 20.2976 11.4999C20.4643 11.596 20.564 11.7758 20.5526 11.982C20.5518 11.9961 20.5501 12.0105 20.5474 12.0244Z" fill="#333333"/>
<path d="M15.9932 12.8047C14.2349 12.8047 12.8047 14.2349 12.8047 15.9932C12.8047 17.7514 14.2349 19.1817 15.9932 19.1817C17.7514 19.1817 19.1817 17.7514 19.1817 15.9932C19.1817 14.2349 17.7514 12.8047 15.9932 12.8047Z" fill="#333333"/>
</g>
<defs>
<clipPath id="clip0_0_236">
<rect width="14" height="14" fill="white" transform="translate(9 9)"/>
</clipPath>
</defs>
</svg>
