<svg width="32" height="32" viewBox="0 0 32 32" fill="none" xmlns="http://www.w3.org/2000/svg">
<path d="M22.015 19.515C22.0107 19.5129 22.0017 19.509 21.9973 19.5072C21.8195 19.4329 20.2601 18.7255 20.2428 16.8016C20.2282 15.2852 21.3204 14.4707 21.6555 14.2571C21.6647 14.2513 21.6713 14.2471 21.675 14.2445C21.8104 14.153 21.8461 13.9692 21.7549 13.8336C20.842 12.4766 19.4503 12.2707 18.8842 12.2459C18.8015 12.2376 18.7164 12.2334 18.631 12.2334C17.9677 12.2334 17.3477 12.4826 16.8495 12.6829C16.5458 12.805 16.2588 12.9203 16.0941 12.9203C15.9044 12.9203 15.6151 12.8033 15.3088 12.6794C14.844 12.4914 14.3172 12.2783 13.7431 12.2783C13.7292 12.2783 13.7152 12.2784 13.702 12.2787C12.3843 12.2996 11.1405 13.0647 10.4563 14.275C9.17907 16.5304 9.98197 19.942 11.3857 22.0068C11.9249 22.8006 12.7396 24 13.8632 24C13.8839 24 13.9045 23.9995 13.9258 23.9987C14.4069 23.9794 14.7457 23.8325 15.0732 23.6906C15.4225 23.5392 15.7524 23.3962 16.284 23.3962C16.7891 23.3962 17.1029 23.5344 17.4351 23.6807C17.771 23.8286 18.1183 23.9816 18.6309 23.9816C18.6464 23.9816 18.662 23.9815 18.6783 23.9812C19.8439 23.9585 20.5577 22.8954 21.131 22.0413C21.7495 21.1215 22.0606 20.2274 22.1657 19.8857L22.1688 19.8757C22.2157 19.734 22.1498 19.5793 22.015 19.515Z" fill="#333333"/>
<path d="M15.9556 11.9851C16.0115 11.9895 16.0685 11.9917 16.1252 11.9917C16.1253 11.9917 16.1252 11.9917 16.1253 11.9917C16.9196 11.9917 17.7739 11.5484 18.3552 10.8343C18.9601 10.0875 19.2656 9.12686 19.1723 8.26453C19.1555 8.10951 19.0221 7.99271 18.8656 8.00035C18.0596 8.03354 17.0951 8.53534 16.5207 9.21972C16.0343 9.79412 15.5594 10.7546 15.6851 11.7277C15.7031 11.8666 15.8159 11.9741 15.9556 11.9851Z" fill="#333333"/>
<circle cx="16" cy="16" r="15.65" stroke="#333333" stroke-width="0.7"/>
</svg>
