<svg width="24" height="25" viewBox="0 0 24 25" fill="none" xmlns="http://www.w3.org/2000/svg">
<path d="M15.2996 21.289C14.9945 21.289 14.6862 21.2297 14.3914 21.1075C13.5086 20.7422 12.9382 19.8921 12.9382 18.9418V16.9247C12.9382 16.4069 13.3579 15.987 13.8757 15.987C14.3936 15.987 14.8134 16.4069 14.8134 16.9247V18.9418C14.8134 19.2227 15.0198 19.3382 15.1084 19.375C15.1987 19.4123 15.4305 19.4774 15.6326 19.275L21.8513 13.0487C22.2177 12.6819 22.2177 12.0852 21.8513 11.7184L15.6326 5.49229C15.4305 5.28996 15.1987 5.35478 15.1086 5.39213C15.0198 5.42894 14.8134 5.54466 14.8134 5.82554V11.4928C14.8134 12.5268 13.9722 13.368 12.9382 13.368H0.937501C0.419678 13.368 0 12.9484 0 12.4305C0 11.9127 0.419678 11.4928 0.937501 11.4928H12.9382V5.82554C12.9382 4.87523 13.5086 4.02488 14.3914 3.65959C15.2772 3.29301 16.2852 3.49223 16.9592 4.16716L23.1779 10.3933C24.2739 11.4908 24.2739 13.2765 23.1779 14.374L16.9592 20.6002C16.5095 21.0504 15.9111 21.2888 15.2996 21.289Z" fill="#7333FC"/>
</svg>
